<?xml version="1.0" encoding="UTF-8"?>
<svg width="224px" height="56px" viewBox="0 0 224 56" version="1.1" xmlns="http://www.w3.org/2000/svg" xmlns:xlink="http://www.w3.org/1999/xlink">
    <!-- Generator: Sketch 54.1 (76490) - https://sketchapp.com -->
    <title>Artboard Copy</title>
    <desc>Created with Sketch.</desc>
    <g id="Artboard-Copy" stroke="none" stroke-width="1" fill="none" fill-rule="evenodd">
        <g id="Group" fill="#1A1D1F">
            <path d="M95.328,37.728 C95.328,40.512 95.616,43.92 93.792,46.368 C92.304,48.384 89.184,50.016 83.76,50.016 C78.384,50.016 75.744,48.528 74.256,46.416 C73.68,45.552 73.248,44.544 72.768,42.48 L79.104,42.528 C79.248,43.008 79.344,43.296 79.68,43.728 C80.928,45.552 83.568,45.504 84,45.504 C86.88,45.504 88.368,44.4 88.992,43.248 C89.664,42 89.616,40.752 89.616,38.064 C86.928,40.464 83.568,40.608 82.368,40.608 C80.928,40.608 79.344,40.368 78,39.744 C75.456,38.64 72,35.76 72,29.184 C72,28.416 72,26.16 72.816,24.048 C74.448,19.872 78.336,17.28 82.848,17.28 C83.664,17.28 85.968,17.376 87.936,18.816 C88.8,19.44 89.424,20.256 89.616,20.544 L89.616,18 L95.328,18 L95.328,37.728 Z M89.76,29.232 C89.76,27.888 89.568,27.072 89.376,26.544 C88.992,25.248 87.696,22.416 83.808,22.416 C82.992,22.416 81.072,22.56 79.536,24.24 C77.856,26.064 77.904,28.272 77.904,29.04 C77.904,29.808 77.904,31.872 79.44,33.6 C79.68,33.84 80.208,34.368 80.976,34.752 C81.456,34.992 82.416,35.376 83.856,35.376 C86.16,35.376 87.456,34.464 88.128,33.744 C89.76,32.112 89.76,30 89.76,29.232 Z M114.624,23.376 C113.424,23.376 108.816,23.376 107.424,27.792 C106.992,29.136 106.992,30.336 106.992,31.728 L106.992,42 L101.424,42 L101.424,18 L106.992,18 L106.992,21.408 C107.376,20.688 107.856,19.968 108.432,19.44 C110.352,17.568 113.472,17.472 114.144,17.472 L114.624,17.472 L114.624,23.376 Z M124.176,14.256 L118.464,14.256 L118.464,8.448 L124.176,8.448 L124.176,14.256 Z M124.176,42 L118.464,42 L118.464,18 L124.176,18 L124.176,42 Z M152.112,42 L146.4,42 L146.4,39.696 C146.16,39.936 145.968,40.224 145.728,40.464 C144.816,41.328 142.848,42.72 139.728,42.72 C138.912,42.72 137.184,42.624 135.264,41.712 C132.672,40.512 129.072,37.392 129.072,30.48 C129.072,23.136 133.056,19.344 135.792,18.096 C136.56,17.76 137.952,17.28 139.968,17.28 C140.784,17.28 142.512,17.328 144.336,18.336 C144.672,18.528 144.96,18.672 145.536,19.104 C145.968,19.44 146.304,19.872 146.4,19.968 L146.4,8.112 L152.112,8.112 L152.112,42 Z M146.352,30.096 C146.352,28.56 146.112,26.592 145.296,25.152 C145.008,24.624 144.48,24 144.048,23.664 C143.088,22.896 142.032,22.608 140.832,22.608 C140.352,22.608 139.104,22.704 137.904,23.472 C135.168,25.248 135.072,29.136 135.072,29.856 C135.072,33.408 136.56,37.488 140.784,37.488 C142.32,37.488 143.52,37.008 144.528,35.856 C146.016,34.224 146.4,32.256 146.352,30.096 Z M164.16,14.256 L158.448,14.256 L158.448,8.448 L164.16,8.448 L164.16,14.256 Z M164.16,42 L158.448,42 L158.448,18 L164.16,18 L164.16,42 Z M191.328,42 L185.664,42 L185.664,29.76 C185.664,27.888 185.664,26.976 185.424,26.064 C184.752,23.28 182.592,22.896 181.44,22.896 C180.816,22.896 179.616,22.992 178.416,24 C176.688,25.44 176.16,27.456 176.16,31.584 L176.16,42 L170.352,42 L170.352,18 L176.16,18 L176.16,20.832 C176.256,20.688 176.736,20.064 177.216,19.584 C179.472,17.472 182.736,17.28 183.552,17.28 C187.104,17.28 189.168,19.104 189.936,20.208 C191.472,22.416 191.328,25.44 191.328,27.888 L191.328,42 Z M219.264,37.728 C219.264,40.512 219.552,43.92 217.728,46.368 C216.24,48.384 213.12,50.016 207.696,50.016 C202.32,50.016 199.68,48.528 198.192,46.416 C197.616,45.552 197.184,44.544 196.704,42.48 L203.04,42.528 C203.184,43.008 203.28,43.296 203.616,43.728 C204.864,45.552 207.504,45.504 207.936,45.504 C210.816,45.504 212.304,44.4 212.928,43.248 C213.6,42 213.552,40.752 213.552,38.064 C210.864,40.464 207.504,40.608 206.304,40.608 C204.864,40.608 203.28,40.368 201.936,39.744 C199.392,38.64 195.936,35.76 195.936,29.184 C195.936,28.416 195.936,26.16 196.752,24.048 C198.384,19.872 202.272,17.28 206.784,17.28 C207.6,17.28 209.904,17.376 211.872,18.816 C212.736,19.44 213.36,20.256 213.552,20.544 L213.552,18 L219.264,18 L219.264,37.728 Z M213.696,29.232 C213.696,27.888 213.504,27.072 213.312,26.544 C212.928,25.248 211.632,22.416 207.744,22.416 C206.928,22.416 205.008,22.56 203.472,24.24 C201.792,26.064 201.84,28.272 201.84,29.04 C201.84,29.808 201.84,31.872 203.376,33.6 C203.616,33.84 204.144,34.368 204.912,34.752 C205.392,34.992 206.352,35.376 207.792,35.376 C210.096,35.376 211.392,34.464 212.064,33.744 C213.696,32.112 213.696,30 213.696,29.232 Z" id="griding" fill-rule="nonzero"></path>
            <g id="Group-2">
                <rect id="Rectangle-Copy-9" x="0" y="0" width="36" height="16"></rect>
                <rect id="Rectangle-Copy-10" x="40" y="0" width="16" height="16"></rect>
                <rect id="Rectangle-Copy-11" x="20" y="40" width="16" height="16"></rect>
                <rect id="Rectangle-Copy-12" x="40" y="40" width="16" height="16"></rect>
                <rect id="Rectangle-Copy-13" x="20" y="20" width="36" height="16"></rect>
                <rect id="Rectangle-Copy-14" x="0" y="20" width="16" height="36"></rect>
            </g>
        </g>
    </g>
</svg>